<svg width="580" height="183" xmlns="http://www.w3.org/2000/svg">
 <!-- Created with Method Draw - http://github.com/duopixel/Method-Draw/ -->

 <g>
  <title>background</title>
  <rect fill="none" id="canvas_background" height="185" width="582" y="-1" x="-1"/>
  <g display="none" overflow="visible" y="0" x="0" height="100%" width="100%" id="canvasGrid">
   <rect fill="url(#gridpattern)" stroke-width="0" y="0" x="0" height="100%" width="100%"/>
  </g>
 </g>
 <g>
  <title>Layer 1</title>
  <style transform="matrix(0.004444444908036138,0,0,0.004444444908036138,0,0) " type="text/css">.st0{fill:#D7D7D7;}
	.st1{fill:#FFFFFF;}</style>
  <style transform="matrix(0.018677949875327338,0,0,0.018677949875327338,0,0) " type="text/css">.st0{fill:#D7D7D7;}
	.st1{fill:#FFFFFF;}</style>
  <g stroke="null" id="svg_104">
   <rect stroke="null" transform="matrix(0.3118841485587301,0,0,0.3118841485587301,-60.40132428747462,-58.7029586825566) " id="svg_57" height="550" width="626.6" class="st0" y="229.507146" x="811.398608"/>
   <rect stroke="null" transform="matrix(0.3118841485587301,0,0,0.3118841485587301,-60.40132428747462,-58.7029586825566) " id="svg_58" height="48.7" width="657.9" class="st0" y="187.707146" x="795.698608"/>
   <rect stroke="null" transform="matrix(0.3118841485587301,0,0,0.3118841485587301,-60.40132428747462,-58.7029586825566) " id="svg_59" height="104.4" width="20.6" class="st0" y="675.107146" x="610.998608"/>
   <rect stroke="null" transform="matrix(0.3118841485587301,0,0,0.3118841485587301,-60.40132428747462,-58.7029586825566) " id="svg_60" height="104.4" width="20.6" class="st0" y="675.107146" x="710.098608"/>
   <rect stroke="null" transform="matrix(0.3118841485587301,0,0,0.3118841485587301,-60.40132428747462,-58.7029586825566) " id="svg_61" height="104.4" width="20.6" class="st0" y="675.107146" x="313.798608"/>
   <rect stroke="null" transform="matrix(0.3118841485587301,0,0,0.3118841485587301,-60.40132428747462,-58.7029586825566) " id="svg_62" height="104.4" width="41.8" class="st0" y="675.107146" x="193.498608"/>
   <rect stroke="null" transform="matrix(0.3118841485587301,0,0,0.3118841485587301,-60.40132428747462,-58.7029586825566) " id="svg_63" height="104.4" width="20.6" class="st0" y="675.107146" x="511.898608"/>
   <rect stroke="null" transform="matrix(0.3118841485587301,0,0,0.3118841485587301,-60.40132428747462,-58.7029586825566) " id="svg_64" height="104.4" width="20.6" class="st0" y="675.107146" x="412.898608"/>
   <rect stroke="null" transform="matrix(0.3118841485587301,0,0,0.3118841485587301,-60.40132428747462,-58.7029586825566) " id="svg_65" height="104.4" width="20.6" class="st0" y="675.007146" x="1615.398608"/>
   <rect stroke="null" transform="matrix(0.3118841485587301,0,0,0.3118841485587301,-60.40132428747462,-58.7029586825566) " id="svg_66" height="104.4" width="20.6" class="st0" y="675.007146" x="1516.298608"/>
   <rect stroke="null" transform="matrix(0.3118841485587301,0,0,0.3118841485587301,-60.40132428747462,-58.7029586825566) " id="svg_67" height="104.4" width="20.6" class="st0" y="675.007146" x="1912.698608"/>
   <rect stroke="null" transform="matrix(0.3118841485587301,0,0,0.3118841485587301,-60.40132428747462,-58.7029586825566) " id="svg_68" height="104.4" width="41.8" class="st0" y="675.007146" x="2011.698608"/>
   <rect stroke="null" transform="matrix(0.3118841485587301,0,0,0.3118841485587301,-60.40132428747462,-58.7029586825566) " id="svg_69" height="104.4" width="20.6" class="st0" y="675.007146" x="1714.398608"/>
   <rect stroke="null" transform="matrix(0.3118841485587301,0,0,0.3118841485587301,-60.40132428747462,-58.7029586825566) " id="svg_70" height="104.4" width="20.6" class="st0" y="675.007146" x="1813.498608"/>
   <g stroke="null" transform="matrix(0.3118841485587301,0,0,0.3118841485587301,-60.40132428747462,-58.7029586825566) " id="svg_71">
    <rect stroke="null" id="svg_72" height="69.6" width="69.6" class="st1" y="243.407138" x="833.997743"/>
    <rect stroke="null" id="svg_73" height="69.6" width="69.6" class="st1" y="243.407138" x="923.097743"/>
    <rect stroke="null" id="svg_74" height="69.6" width="69.6" class="st1" y="243.407138" x="1012.197743"/>
    <rect stroke="null" id="svg_75" height="69.6" width="69.6" class="st1" y="243.407138" x="1101.397743"/>
    <rect stroke="null" id="svg_76" height="69.6" width="69.6" class="st1" y="243.407138" x="1190.497743"/>
    <rect stroke="null" id="svg_77" height="69.6" width="69.6" class="st1" y="333.907138" x="833.997743"/>
    <rect stroke="null" id="svg_78" height="69.6" width="69.6" class="st1" y="333.907138" x="923.097743"/>
    <rect stroke="null" id="svg_79" height="69.6" width="69.6" class="st1" y="333.907138" x="1012.197743"/>
    <rect stroke="null" id="svg_80" height="69.6" width="69.6" class="st1" y="333.907138" x="1101.397743"/>
    <rect stroke="null" id="svg_81" height="69.6" width="69.6" class="st1" y="333.907138" x="1190.497743"/>
    <rect stroke="null" id="svg_82" height="69.6" width="69.6" class="st1" y="424.407138" x="833.997743"/>
    <rect stroke="null" id="svg_83" height="69.6" width="69.6" class="st1" y="424.407138" x="923.097743"/>
    <rect stroke="null" id="svg_84" height="69.6" width="69.6" class="st1" y="424.407138" x="1012.197743"/>
    <rect stroke="null" id="svg_85" height="69.6" width="69.6" class="st1" y="424.407138" x="1101.397743"/>
    <rect stroke="null" id="svg_86" height="69.6" width="69.6" class="st1" y="424.407138" x="1190.497743"/>
    <rect stroke="null" id="svg_87" height="69.6" width="69.6" class="st1" y="514.907138" x="833.997743"/>
    <rect stroke="null" id="svg_88" height="69.6" width="69.6" class="st1" y="514.907138" x="923.097743"/>
    <rect stroke="null" id="svg_89" height="69.6" width="69.6" class="st1" y="514.907138" x="1012.197743"/>
    <rect stroke="null" id="svg_90" height="69.6" width="69.6" class="st1" y="514.907138" x="1101.397743"/>
    <rect stroke="null" id="svg_91" height="69.6" width="69.6" class="st1" y="514.907138" x="1190.497743"/>
    <rect stroke="null" id="svg_92" height="69.6" width="69.6" class="st1" y="605.407138" x="833.997743"/>
    <rect stroke="null" id="svg_93" height="69.6" width="69.6" class="st1" y="605.407138" x="923.097743"/>
    <rect stroke="null" id="svg_94" height="69.6" width="69.6" class="st1" y="605.407138" x="1012.197743"/>
    <rect stroke="null" id="svg_95" height="69.6" width="69.6" class="st1" y="605.407138" x="1101.397743"/>
    <rect stroke="null" id="svg_96" height="69.6" width="69.6" class="st1" y="605.407138" x="1190.497743"/>
    <rect stroke="null" id="svg_97" height="69.6" width="69.6" class="st1" y="695.907138" x="833.997743"/>
    <rect stroke="null" id="svg_98" height="69.6" width="69.6" class="st1" y="695.907138" x="923.097743"/>
    <rect stroke="null" id="svg_99" height="69.6" width="69.6" class="st1" y="695.907138" x="1012.197743"/>
    <rect stroke="null" id="svg_100" height="69.6" width="69.6" class="st1" y="695.907138" x="1101.397743"/>
    <rect stroke="null" id="svg_101" height="69.6" width="69.6" class="st1" y="695.907138" x="1190.497743"/>
   </g>
   <path stroke="null" id="svg_102" d="m384.282661,34.583819l0,117.26844l195.426607,0l0,-117.26844l-195.426607,0zm4.33519,28.225515l23.890326,0l0,17.371947l-23.890326,0l0,-17.371947zm23.890326,78.158168l-23.890326,0l0,-17.340759l23.890326,0l0,17.340759zm0,-30.377516l-23.890326,0l0,-17.371947l23.890326,0l0,17.371947zm6.518379,-47.780652l23.890326,0l0,17.371947l-23.890326,0l0,-17.371947zm23.890326,78.158168l-23.890326,0l0,-17.340759l23.890326,0l0,17.340759zm0,-30.377516l-23.890326,0l0,-17.371947l23.890326,0l0,17.371947zm32.560705,30.377516l-23.890326,0l0,-17.340759l23.890326,0l0,17.340759zm0,-30.377516l-23.890326,0l0,-17.371947l23.890326,0l0,17.371947zm0,-30.408704l-23.890326,0l0,-17.371947l23.890326,0l0,17.371947zm30.408704,60.786221l-23.890326,0l0,-17.340759l23.890326,0l0,17.340759zm0,-30.377516l-23.890326,0l0,-17.371947l23.890326,0l0,17.371947zm0,-30.408704l-23.890326,0l0,-17.371947l23.890326,0l0,17.371947zm30.377516,60.786221l-23.890326,0l0,-17.340759l23.890326,0l0,17.340759zm0,-30.377516l-23.890326,0l0,-17.371947l23.890326,0l0,17.371947zm0.031188,-30.408704l-23.890326,0l0,-17.371947l23.890326,0l0,17.371947zm30.377516,60.786221l-23.890326,0l0,-17.340759l23.890326,0l0,17.340759zm0,-30.377516l-23.890326,0l0,-17.371947l23.890326,0l0,17.371947zm0,-30.408704l-23.890326,0l0,-17.371947l23.890326,0l0,17.371947z" class="st0"/>
   <path stroke="null" id="svg_103" d="m-0.052176,34.583819l0,117.26844l195.426607,0l0,-117.26844l-195.426607,0zm36.927083,106.383683l-23.890326,0l0,-17.340759l23.890326,0l0,17.340759zm0,-30.377516l-23.890326,0l0,-17.371947l23.890326,0l0,17.371947zm0,-30.408704l-23.890326,0l0,-17.371947l23.890326,0l0,17.371947zm30.377516,60.786221l-23.890326,0l0,-17.340759l23.890326,0l0,17.340759zm0,-30.377516l-23.890326,0l0,-17.371947l23.890326,0l0,17.371947zm0,-30.408704l-23.890326,0l0,-17.371947l23.890326,0l0,17.371947zm32.591894,60.786221l-23.890326,0l0,-17.340759l23.890326,0l0,17.340759zm0,-30.377516l-23.890326,0l0,-17.371947l23.890326,0l0,17.371947zm0,-30.408704l-23.890326,0l0,-17.371947l23.890326,0l0,17.371947zm30.377516,60.786221l-23.890326,0l0,-17.340759l23.890326,0l0,17.340759zm0,-30.377516l-23.890326,0l0,-17.371947l23.890326,0l0,17.371947zm0,-30.408704l-23.890326,0l0,-17.371947l23.890326,0l0,17.371947zm30.408704,60.786221l-23.890326,0l0,-17.340759l23.890326,0l0,17.340759zm0,-30.377516l-23.890326,0l0,-17.371947l23.890326,0l0,17.371947zm0,-30.408704l-23.890326,0l0,-17.371947l23.890326,0l0,17.371947zm6.518379,-17.371947l23.890326,0l0,17.371947l-23.890326,0l0,-17.371947zm23.890326,78.158168l-23.890326,0l0,-17.340759l23.890326,0l0,17.340759zm0,-30.377516l-23.890326,0l0,-17.371947l23.890326,0l0,17.371947z" class="st0"/>
  </g>
 </g>
</svg>
