<?xml version="1.0" encoding="utf-8"?>
<svg version="1.1" id="Layer_1"
	 xmlns="http://www.w3.org/2000/svg" xmlns:xlink="http://www.w3.org/1999/xlink" x="0px" y="0px" viewBox="0 0 300 300"
	 style="enable-background:new 0 0 300 300;" xml:space="preserve">
	<style type="text/css">
		.st0{fill:#FFFFFF;}
		.st1{fill:none;stroke:#FFFFFF;stroke-width:7;stroke-miterlimit:10;}
		.st2{fill:none;stroke:#FFFFFF;stroke-width:12;stroke-miterlimit:10;}
		.st3{fill:none;stroke:#FFFFFF;stroke-width:15;stroke-miterlimit:10;}
	</style>
	<switch>
		<g>
			<g>
				<circle class="st0" cx="150" cy="163.9" r="13.7"/>
				<path class="st0" d="M150,29.1c-66.8,0-121.2,54.4-121.2,121.2S83.2,271.4,150,271.4s121.2-54.4,121.2-121.2S216.8,29.1,150,29.1
					z M52.3,155c10.5-1.3,23.5,7.3,31.4,21.7c9.4,17,8.1,35.8-2.9,41.9c-0.2,0.1-0.3,0.2-0.5,0.3C64,202.2,53.5,179.8,52.3,155z
					 M150,206.1c21.9,0,39.7,0,39.7,17.7c0,12-17.8,21.8-39.7,21.8s-39.7-9.7-39.7-21.8C110.3,206.1,128.1,206.1,150,206.1z
					 M124.9,163.9c0-13.9,11.3-25.1,25.1-25.1s25.1,11.3,25.1,25.1s-11.3,25.1-25.1,25.1S124.9,177.8,124.9,163.9z M215.9,175.9
					c8.4-13.8,21.4-21.7,31.8-20.3c-1.3,24.7-11.9,47.1-28.3,63.6c-0.8-0.4-1.6-0.8-2.4-1.3C206.2,211.3,205.8,192.5,215.9,175.9z
					 M150,52.4c49.4,0,90.3,36.8,96.9,84.3c-34.5-5.6-73.4-10.7-98.9-10.7c-30.1,0-67.4,6.6-95.1,12.6C58.6,90.2,100,52.4,150,52.4z"
					/>
			</g>
		</g>
	</switch>
</svg>
