<?xml version="1.0" encoding="utf-8"?>
<svg version="1.1" id="Layer_1"
	 xmlns="http://www.w3.org/2000/svg" xmlns:xlink="http://www.w3.org/1999/xlink" x="0px" y="0px" viewBox="0 0 300 300"
	 style="enable-background:new 0 0 300 300;" xml:space="preserve">
<style type="text/css">
	.st0{fill:#FFFFFF;}
	.st1{fill:none;stroke:#FFFFFF;stroke-width:7;stroke-miterlimit:10;}
	.st2{fill:none;stroke:#FFFFFF;stroke-width:12;stroke-miterlimit:10;}
	.st3{fill:none;stroke:#FFFFFF;stroke-width:15;stroke-miterlimit:10;}
</style>
<switch>
	<g>
		<g>
			<path class="st1" d="M192.9,69.7h-82c-4.9,0-9-4-9-9v0c0-4.9,4.1-9,9-9h82c4.9,0,9,4,9,9v0C201.9,65.6,197.9,69.7,192.9,69.7z"/>
			<path class="st2" d="M114.8,51.2L114.8,51.2c0-14.7,5.1-26.7,11.4-26.7h51.5c6.3,0,11.4,12,11.4,26.7v0"/>
			<path class="st1" d="M192.9,93h-82c-4.9,0-9-4-9-9v0c0-4.9,4.1-9,9-9h82c4.9,0,9,4,9,9v0C201.9,89,197.9,93,192.9,93z"/>
			<path class="st3" d="M113.9,42.8c-6.6,0-12,5.9-12,13.1v4.3c0,26.6-6.3,52.7-18.1,76c-6.3,12.4-9.8,26.7-9.7,41.9
				c0.3,45.9,34.6,83.8,76.8,84.9c44.3,1.1,80.6-37.6,80.6-85.6c0-15.2-3.6-29.5-10-41.9c-12.5-24.1-19.5-23.8-19.5-78.7v-0.9
				c0-7.2-5.4-13.1-12-13.1"/>
		</g>
	</g>
</switch>
</svg>
