<?xml version="1.0" encoding="utf-8"?>
<svg version="1.1" id="Layer_1"
	 xmlns="http://www.w3.org/2000/svg" xmlns:xlink="http://www.w3.org/1999/xlink" x="0px" y="0px" viewBox="0 0 300 300"
	 style="enable-background:new 0 0 300 300;" xml:space="preserve">
	<style type="text/css">
		.st0{fill:#9DCA3B;}
		.st1{fill:none;stroke:#9DCA3B;stroke-width:7;stroke-miterlimit:10;}
		.st2{fill:none;stroke:#9DCA3B;stroke-width:12;stroke-miterlimit:10;}
		.st3{fill:none;stroke:#9DCA3B;stroke-width:15;stroke-miterlimit:10;}
	</style>
	<switch>
		<g>
			<path class="st0" d="M261.9,142.9L258,142c-14.3-3.3-29.1,2.2-37.9,13.9l-18.3,24.6h-47.7v-11.9h0v-3.6h35.9c5,0,9.7-2.5,12.4-6.8
				l25-38.9c1.5-2.4,2.3-5.1,2.3-7.9V65.8c0-5.4-13.4-4.3-13.4,0S205.1,76,205.1,76h-50.9V59.9h41c4.3,0,7.8-3.5,7.8-7.8v-22
				c0-4.3-3.5-7.8-7.8-7.8H148h-0.8h-42.4c-4.3,0-7.8,3.5-7.8,7.8v22c0,4.3,3.5,7.8,7.8,7.8h41V76H94.9c0,0-11.3-5.9-11.3-10.2
				s-13.4-5.4-13.4,0v45.5c0,2.8,0.8,5.6,2.3,7.9l25,38.9c2.7,4.2,7.4,6.8,12.4,6.8h35.9v3.6v11.9H98.2l-18.3-24.6
				C71.1,144.1,56.3,138.7,42,142l-3.9,0.9c-5.5,1.3-7.7,7.9-4.1,12.2l45.4,54.3h66.4v58.1h-44.8c-4.6,0-8.3,3.7-8.3,8.3l0,0h53.1
				h8.3h53.1l0,0c0-4.6-3.7-8.3-8.3-8.3h-44.8v-58.1h66.4l45.4-54.3C269.6,150.8,267.4,144.1,261.9,142.9z"/>
		</g>
	</switch>
</svg>
