<?xml version="1.0" encoding="utf-8"?>
<svg version="1.1" id="Layer_1"
	 xmlns="http://www.w3.org/2000/svg" xmlns:xlink="http://www.w3.org/1999/xlink" x="0px" y="0px" viewBox="0 0 300 300"
	 style="enable-background:new 0 0 300 300;" xml:space="preserve">
	<style type="text/css">
		.st0{fill:#FFFFFF;}
		.st1{fill:none;stroke:#FFFFFF;stroke-width:7;stroke-miterlimit:10;}
		.st2{fill:none;stroke:#FFFFFF;stroke-width:12;stroke-miterlimit:10;}
		.st3{fill:none;stroke:#FFFFFF;stroke-width:15;stroke-miterlimit:10;}
	</style>
	<switch>
		<g>
			<path class="st0" d="M263.4,143.3c-11.3,0-15.3,0-16.5,0c0,0-10.5,0-14.9,13.7s-7.2,18.9-7.2,18.9s-5.2,0.4-2.8-4.8
				c2.4-5.2,6-26.1,14.9-29.7c8.8-3.6,12.9-8,8.4-12.5c-2.2-2.2-9-3-15.2-3.3V24.9h6.8v-8.3H63.2v8.3h6.7v100.7
				c-6.1,0.2-12.9,1-15.1,3.3c-4.4,4.4-0.4,8.8,8.4,12.5c8.8,3.6,12.5,24.5,14.9,29.7c2.4,5.2-2.8,4.8-2.8,4.8s-2.8-5.2-7.2-18.9
				c-4.4-13.7-14.9-13.7-14.9-13.7c-1.2,0-5.1,0-16.5,0c-21.3,0-19.7,16.5-19.7,16.5l13.7,69.1c0,0-0.8,7.6,44.6,21.7
				c0.9,0.3,1.9,0.6,2.8,0.9v32.1h143.9v-32.1c0.9-0.3,1.9-0.6,2.8-0.9c45.4-14.1,44.6-21.7,44.6-21.7l13.7-69.1
				C283.1,159.8,284.7,143.3,263.4,143.3z M77.9,125.5V31.7h144.2v93.8c-2,0-3.3,0.1-3.3,0.1s-1.5,0.6-3.5,2H207
				c2.8-4.1,6.3-7.5,10.7-8.6c10.7-2.8-13.1-9.4-16.5-8.6c-3.4,0.8-14.9-1.8-20.9,14.9c0,0-4.6-3.2-7.2-3.2c0,0-2,1-2-9
				c0-13.9-12.6-14.3-20.5-14.3v0c-0.1,0-0.2,0-0.3,0c-0.1,0-0.2,0-0.3,0v0c-7.9,0-21.1,0.4-21.1,14.3c0,10-2,9-2,9
				c-2.6,0-7.2,3.2-7.2,3.2c-6-16.7-17.5-14.1-20.9-14.9s-27.1,5.8-16.5,8.6c4.4,1.2,8,4.5,10.7,8.6h-8.2c-2-1.4-3.5-2-3.5-2
				S79.9,125.6,77.9,125.5z M207.8,135.7c-2,3.2-3.7,7.3-4.7,12.5c0,0-4.8,6-3.2-2.4c0.5-2.8,1.5-6.4,3-10H207.8z M96.9,148.2
				c-0.9-5.2-2.7-9.3-4.7-12.5h4.9c1.5,3.6,2.4,7.2,3,10C101.7,154.2,96.9,148.2,96.9,148.2z M228.9,227.2
				c-40.6,12.1-113.1,17-158.3,1.8c-9.8-3.3-15.5-13-9.5-21.4l37.1-51.9c23.8-39.1,80.5-39.1,104.3,0l36.2,50
				C245,214.2,239,224.1,228.9,227.2z"/>
		</g>
	</switch>
</svg>
